<?xml version="1.0" encoding="UTF-8" standalone="no"?>
<svg
   xmlns:dc="http://purl.org/dc/elements/1.1/"
   xmlns:cc="http://creativecommons.org/ns#"
   xmlns:rdf="http://www.w3.org/1999/02/22-rdf-syntax-ns#"
   xmlns:svg="http://www.w3.org/2000/svg"
   xmlns="http://www.w3.org/2000/svg"
   xmlns:sodipodi="http://sodipodi.sourceforge.net/DTD/sodipodi-0.dtd"
   xmlns:inkscape="http://www.inkscape.org/namespaces/inkscape"
   version="1.1"
   id="Layer_1"
   x="0px"
   y="0px"
   viewBox="0 0 3883.356 2428.236"
   enable-background="new 0 0 3883.356 2428.236"
   xml:space="preserve"
   inkscape:version="0.91 r13725"
   sodipodi:docname="organicfood-logo.svg"><metadata
     id="metadata29421"><rdf:RDF><cc:Work
         rdf:about=""><dc:format>image/svg+xml</dc:format><dc:type
           rdf:resource="http://purl.org/dc/dcmitype/StillImage" /></cc:Work></rdf:RDF></metadata><defs
     id="defs29419" /><sodipodi:namedview
     pagecolor="#ffffff"
     bordercolor="#666666"
     borderopacity="1"
     objecttolerance="10"
     gridtolerance="10"
     guidetolerance="10"
     inkscape:pageopacity="0"
     inkscape:pageshadow="2"
     inkscape:window-width="1916"
     inkscape:window-height="1035"
     id="namedview29417"
     showgrid="false"
     inkscape:zoom="0.18"
     inkscape:cx="1941.678"
     inkscape:cy="786.30706"
     inkscape:window-x="4"
     inkscape:window-y="1"
     inkscape:window-maximized="1"
     inkscape:current-layer="Layer_1" /><ellipse
     ry="642.22003"
     rx="518.31909"
     cy="1307.9645"
     cx="3189.2336"
     id="ellipse29998"
     style="opacity:0.37900002;fill:#4dc84e;fill-opacity:1;stroke:none;stroke-width:7;stroke-linecap:butt;stroke-linejoin:miter;stroke-miterlimit:4;stroke-dasharray:none;stroke-opacity:1" /><ellipse
     style="opacity:0.37900002;fill:#a34dc8;fill-opacity:1;stroke:none;stroke-width:7;stroke-linecap:butt;stroke-linejoin:miter;stroke-miterlimit:4;stroke-dasharray:none;stroke-opacity:1"
     id="ellipse29996"
     cx="2462.8816"
     cy="767.14758"
     rx="518.31909"
     ry="642.22003" /><ellipse
     ry="642.22003"
     rx="518.31909"
     cy="824.07568"
     cx="1524.9709"
     id="ellipse29994"
     style="opacity:0.37900002;fill:#c84d4e;fill-opacity:1;stroke:none;stroke-width:7;stroke-linecap:butt;stroke-linejoin:miter;stroke-miterlimit:4;stroke-dasharray:none;stroke-opacity:1" /><path
     d="m 1312.0616,527.55917 c 33.3265,0 106.6762,12.53051 220.0702,37.55654 99.5033,-25.03303 155.2727,-37.55654 167.308,-37.55654 26.829,0 82.4135,-3.9927 149.9552,58.04447 60.1839,72.11331 54.1485,141.77228 54.1485,201.446 0,177.09827 -69.8877,305.69666 -209.6558,385.81636 -19.9049,10.9293 -39.568,16.3904 -59.0109,16.3904 -72.6672,-17.7539 -112.2353,-26.6344 -118.7115,-26.6344 -8.7938,0 -48.1345,8.8805 -118.0221,26.6344 -167.5781,0 -279.7708,-294.06126 -279.7708,-444.53917 24.5257,-144.77204 89.0888,-217.15806 193.6892,-217.15806 z m -107.6075,-279.9714 c 0,9.5587 17.8149,16.6211 53.459,21.1662 86.0745,0 236.7334,-15.9638 236.7334,137.25514 7.1374,0 5.5521,58.23326 5.5521,100.37687 -7.4644,0 -7.3222,9.05525 -37.4852,-79.21067 -15.7391,-20.93545 -76.8331,-45.51397 -183.2746,-73.74956 0,-6.32119 -4.045,-5.46111 -10.4145,-5.46111 5.09,7.74766 60.6246,34.14422 166.6184,79.21067 21.2841,26.86505 31.9332,51.67433 31.9332,74.43482 -47.1746,-6.8736 -22.592,-5.46113 -112.4628,-5.46113 -143.1235,0 -152.9267,-142.82114 -161.7559,-243.77838 l 11.0969,-4.78285 z m 322.8152,925.27133 c 65.6365,0 38.6369,47.8005 26.3811,47.8005 -3.2416,0 -4.8625,-1.8111 -4.8625,-5.4611 l -11.1111,5.4611 -10.4146,-5.4611 c -6.9454,3.65 -12.4974,5.4611 -16.6633,5.4611 l 0,-5.4611 -10.4145,5.4611 -5.552,0 -10.4146,-5.4611 c 0,3.65 -1.8554,5.4611 -5.552,5.4611 l -11.1113,-15.7051 0,-15.7052 c 6.8175,-20.0894 34.5138,-16.3902 59.7148,-16.3902 z m 15.9666,-930.73245 c 25.1939,0 91.6409,1.65722 91.6409,26.63432 l 0,4.78283 -75.6743,164.56773 c -10.6492,77.39962 -21.2911,116.08894 -31.9332,116.08894 -29.6868,0 10.4146,-45.28321 10.4146,-200.76072 0,-23.215 -1.8554,-58.492 -5.5521,-105.84499 l 11.1041,-5.46811 z"
     id="path29107"
     inkscape:connector-curvature="0" /><ellipse
     style="opacity:0.37900002;fill:#c8b74d;fill-opacity:1;stroke:none;stroke-width:7;stroke-linecap:butt;stroke-linejoin:miter;stroke-miterlimit:4;stroke-dasharray:none;stroke-opacity:1"
     id="path29992"
     cx="668.15771"
     cy="1258.1525"
     rx="518.31909"
     ry="642.22003" /><path
     d="m 151.40408,731.72985 c 10.64203,0 47.21022,35.96925 109.69035,107.89378 l 54.84517,46.43704 c 69.54638,0 173.89083,-12.69143 289.49579,115.40363 l 8.33163,0 c 0,-4.54509 2.53788,-25.03299 7.63496,-61.45683 -7.40748,0 -67.57722,-59.17028 -180.50212,-177.54573 0,-8.87343 -3.1137,-16.81688 23.60156,-30.73189 L 636.6719,893.57056 c 17.11824,-10.46781 32.85734,-15.7051 47.21021,-15.7051 48.13437,0 97.88956,48.94024 149.25848,146.81384 49.98274,0 96.95828,46.2061 140.92685,138.6186 93.95136,36.4238 140.92686,90.3707 140.92686,161.8406 18.2486,0 13.8339,346.8895 -118.02197,346.8895 -70.8118,25.5015 -133.29188,38.2416 -187.44037,38.2416 -55.69826,0 -181.24856,9.2301 -250.61722,-146.1285 -71.74304,-30.9556 -121.49113,-79.8959 -149.25849,-146.8138 -143.52161,-63.9671 -133.2919,-126.3958 -133.2919,-161.8407 l 15.96659,-23.215 -156.89345,-161.8406 c 0,-9.0832 -2.53077,-30.7319 15.96659,-30.7319 l 7.63497,0 188.13707,177.5457 54.84516,-7.5099 0,-15.705 C 273.64875,1110.365 284.69598,997.17801 284.69598,924.30236 180.0956,821.42923 127.80253,762.46174 127.80253,747.44193 l 23.60155,-15.71208 z m 219.3807,239.00256 0,15.0197 c 0,97.88769 67.79758,159.56119 203.40698,185.05569 l 0,-7.5099 C 547.07842,1047.6216 491.11714,970.73241 370.78478,970.73241 Z m 7.63495,323.67429 c 0,15.4813 28.69153,30.7318 86.08169,45.7518 79.97514,0 97.20712,4.1255 195.77203,-22.5368 l 0,-8.1952 c -60.16974,-30.4941 -96.73082,-45.7517 -109.69035,-45.7517 l -172.16337,30.7319 z m 148.56182,146.1286 c 0,20.4879 41.88565,35.9692 125.65693,46.437 27.76738,0 77.28799,-7.7337 148.56188,-23.215 0,-35.4309 -100.88247,-53.9469 -117.32536,-53.9469 -33.31942,0 -85.61961,10.2369 -156.89345,30.7249 z M 699.8487,978.24221 668.60508,1140.0829 c 0,43.2554 18.27698,81.7211 54.84517,115.4037 27.51145,-129.5704 22.91199,-92.0348 22.91199,-176.8604 0,-44.1575 -15.51162,-77.6165 -46.51354,-100.38399 z M 668.60508,1579.154 c 38.1748,51.0869 91.91098,46.4369 132.59528,46.4369 38.40932,0 85.39208,-7.7336 140.92686,-23.215 0,-18.6629 -33.78867,-36.6404 -101.35877,-53.9469 -24.52568,0 -81.91587,10.244 -172.16337,30.725 z m 179.80544,-454.7831 c -20.82906,60.5478 -31.24359,114.4946 -31.24359,161.8406 0,27.3126 12.95237,63.2818 38.87855,107.8938 l 15.96656,0 c 15.73207,-85.1193 23.60153,-136.3391 23.60153,-153.6455 -12.49024,-77.3926 -28.2294,-116.0889 -47.20305,-116.0889 z m 140.92685,139.3039 c -20.82906,96.0556 -31.24359,152.5127 -31.24359,169.3506 0,34.1441 18.27702,70.1064 54.84512,107.8937 27.2343,-109.523 23.6017,-123.5638 23.6017,-177.5458 0.013,-43.7028 -15.7321,-76.931 -47.20323,-99.6985 z"
     id="path29265"
     inkscape:connector-curvature="0" /><path
     d="m 2486.1473,217.69986 c 27.7674,0 56.459,28.23559 86.0818,84.67179 5.09,-15.46733 20.829,-23.21499 47.2101,-23.21499 36.5612,12.74727 54.8453,30.73189 54.8453,53.94689 l -8.3316,46.43697 c 47.2101,0 70.8117,20.48793 70.8117,61.4568 0,12.74727 -10.4146,30.73189 -31.2436,53.94689 l 0,7.50991 c 31.9331,0 60.6246,38.6963 86.0817,116.08895 36.561,0 62.7076,33.23519 78.4466,99.69859 0,55.08666 -28.6986,96.28627 -86.0816,123.59885 0,47.35298 -31.4782,88.32185 -94.4133,122.9135 0,43.70299 -28.6986,82.39939 -86.0817,116.08899 -16.6632,76.9382 -55.7764,115.4038 -117.3254,115.4038 -63.4113,0 -107.842,-43.703 -133.2918,-131.1088 -34.2507,0 -62.9423,-38.4657 -86.0817,-115.40374 -37.4852,0 -66.191,-38.46553 -86.0817,-115.40366 -36.099,0 -62.2527,-30.95565 -78.4468,-92.86695 0,-44.77977 -12.2201,-78.56037 86.0818,-138.61868 12.4974,-66.91791 38.6439,-100.37687 78.4467,-100.37687 l 0,-7.50991 -31.2437,-38.2418 0,-46.43698 c 0,-20.48793 23.3671,-30.73189 70.1152,-30.73189 l -7.635,-15.70508 0,-45.75172 c 13.4217,-25.94904 34.2436,-38.92008 62.4801,-38.92008 27.7674,0 53.914,30.96266 78.4468,92.86697 l 7.635,0 0,-23.215 -22.912,-77.16188 c 19.8765,-62.21198 41.7363,-53.96087 62.4871,-53.96087 z m -266.5837,493.0249 c 15.732,5.0136 23.6015,10.24396 23.6015,15.70508 36.2341,-13.4605 31.2437,-20.78861 31.2437,-38.92008 0,-4.09758 -7.8696,-11.83126 -23.6016,-23.21499 -20.8291,5.45413 -31.2436,20.93546 -31.2436,46.42999 z m 266.5837,-431.5681 c 10.1801,38.69631 15.27,74.66557 15.27,107.89377 -5.097,56.45019 -15.5117,84.6718 -31.2436,84.6718 -16.2012,-8.19519 -55.3073,-51.66036 -117.3253,-130.42351 l 0,7.50991 47.2102,115.40369 c -5.5521,0 -8.3317,2.5033 -8.3317,7.50991 l -101.3586,-38.24182 c 48.5964,51.45059 90.2474,77.16188 124.9603,77.16188 37.4851,-15.46733 58.5417,-23.21499 63.1767,-23.21499 49.0515,15.48132 77.7572,23.21499 86.0817,23.21499 47.2102,-15.46733 86.3162,-41.19961 117.3253,-77.16188 l -7.6349,0 c -15.7392,10.48172 -47.2103,20.71868 -94.4134,30.73191 l -7.6349,-15.01983 47.2101,-107.89377 -15.9665,0 c -9.7179,27.77408 -33.0919,61.00927 -70.1151,99.6986 l -8.3316,0 c 0,-33.82955 -4.6493,-161.84066 -38.8787,-161.84066 z m -180.4949,300.45933 c 2.3103,14.11779 15.5045,24.35477 39.5681,30.73189 l 15.2699,-22.53672 c 0,-17.78184 3.9953,-24.48762 -22.912,-38.92007 -8.3245,-0.006 -18.9736,10.23698 -31.926,30.7249 z m 8.3316,208.27064 c 0,5.46112 -2.7796,13.20877 -8.3316,23.215 5.552,16.84485 16.1941,27.08881 31.9331,30.73189 9.7179,-5.0066 17.3529,-7.5099 22.912,-7.5099 0,-52.32465 5.0758,-46.43699 -46.5135,-46.43699 z m 86.0817,-84.67878 c 0,4.09759 7.8624,11.84524 23.6016,23.215 20.829,-5.46112 31.2435,-18.43914 31.2435,-38.92007 l -23.6015,-15.01982 c -32.1677,0 -31.2436,2.36345 -31.2436,30.72489 z m 0,230.80737 c 0,7.74767 7.8624,15.48127 23.6016,23.215 20.829,-5.00656 31.2435,-15.25054 31.2435,-30.73193 -5.552,-10.00621 -8.3315,-17.75388 -8.3315,-23.215 -44.9354,0.0128 -46.5136,-2.79701 -46.5136,30.73193 z m 86.0816,-361.91613 c 0,17.78884 -4.1231,24.61349 23.6017,38.24181 9.0424,0 17.1039,2.96481 31.2436,-22.53672 0,-17.78185 4.116,-24.48064 -23.6015,-38.92008 -9.2203,0 -17.1254,-2.99278 -31.2438,23.21499 z m 0,246.51245 c 0,7.28614 7.8625,15.01982 23.6017,23.21499 9.0282,0 17.0968,3.06969 31.2436,-23.21499 0,-34.13722 -0.974,-30.7319 -39.5682,-30.7319 -17.8362,3.19556 -15.2771,14.1038 -15.2771,30.7319 z m 0,223.29736 c 0,9.6357 -3.2557,17.5232 23.6017,30.732 9.0424,0 17.1039,2.9648 31.2436,-22.5368 0,-32.8156 -0.6042,-31.4102 -31.2436,-31.4102 -7.4005,0 -15.2699,7.7477 -23.6017,23.215 z m 86.0889,-346.21096 c 0,9.14615 -3.9455,17.65598 31.2436,30.7319 10.18,-5.46112 18.0495,-8.19517 23.6015,-8.19517 0,-47.14322 3.5403,-45.75171 -31.2436,-45.75171 -7.4074,0 -15.2699,7.74764 -23.6015,23.21498 z m 0,230.80738 c 0,10.90818 -2.6374,30.73193 31.2436,30.73193 10.18,-5.00668 18.0495,-7.5099 23.6015,-7.5099 0,-48.40189 2.9716,-46.43703 -31.2436,-46.43703 -7.4074,0 -15.2699,7.74767 -23.6015,23.215 z m 109.6832,-377.62122 -15.9665,23.21499 0,30.73189 c 5.552,0 13.4215,2.50331 23.6015,7.50992 36.1843,-12.64238 31.2436,-20.0544 31.2436,-38.24181 0,-11.83126 -12.9595,-19.56492 -38.8786,-23.21499 z m -15.9665,285.43252 39.5681,7.50991 15.2699,-23.21499 c 0,-32.3961 1.5355,-30.7319 -38.8786,-30.7319 -19.9974,3.43331 -15.9594,14.52336 -15.9594,46.43698 z m 86.7782,-131.10877 c 0,4.09759 7.635,11.84524 22.912,23.215 21.2841,-5.46112 31.9333,-15.70509 31.9333,-30.7319 -5.5521,-10.00622 -8.3316,-17.75387 -8.3316,-23.21499 -45.689,0.006 -46.5137,-3.23751 -46.5137,30.73189 z"
     id="path29321"
     inkscape:connector-curvature="0" /><path
     d="m 3520.1967,949.23045 8.3316,0 c 46.741,22.76746 70.115,89.45465 70.115,200.07545 0,274.0628 -112.2353,445.9097 -336.6988,515.5547 -65.2598,15.4814 -122.4224,23.215 -171.4738,23.215 -59.7006,0 -198.0895,-35.9553 -415.1456,-107.8937 -56.0395,0 -70.1152,4.3982 -70.1152,-15.0198 0,-40.9689 96.4963,-61.4569 289.4958,-61.4569 165.2252,0 274.6809,-43.7029 328.3674,-131.1087 5.0899,-9.1042 7.6349,-19.3482 7.6349,-30.7319 -74.6364,-265.1545 -47.1533,-265.553 -15.2699,-269.0493 l 15.2699,7.5099 c 44.4306,-20.4879 73.1222,-30.7319 86.0816,-30.7319 27.7674,5.0137 43.4994,7.51 47.2103,7.51 52.2931,-45.9755 93.9512,-68.96669 124.9602,-68.96669 20.8219,-14.0898 31.2366,-27.06095 31.2366,-38.90616 z M 3254.3096,710.9132 c 31.9331,10.02021 63.1767,45.98946 93.7236,107.89378 93.9513,17.75387 140.9269,58.72274 140.9269,122.91357 -83.3092,26.86516 -124.9602,52.58336 -124.9602,77.16195 l -54.8452,-8.1952 c -15.7391,0 -41.8928,10.4817 -78.4467,31.4102 -35.5871,0 -38.8787,-42.49329 -38.8787,-77.16199 0,-29.13053 15.7321,-67.60309 47.2103,-115.40364 0,-7.73366 -18.2841,-28.22159 -54.8452,-61.45678 l 0,-8.19518 c 30.5469,-45.97547 53.914,-68.96671 70.1152,-68.96671 z m -15.27,68.96671 c 36.561,32.33317 54.8451,63.28184 54.8451,92.86696 -61.6839,42.24144 -54.8451,78.53235 -54.8451,115.40364 20.8291,-14.1037 59.9352,-24.3477 117.3253,-30.73189 0,-16.83782 25.919,-29.80885 77.7572,-38.91997 l 0,-7.51003 c -26.3811,-35.95522 -68.0323,-53.94684 -124.9603,-53.94684 0,-29.58512 -18.2841,-60.31702 -54.8452,-92.18869 -10.1942,1.37054 -15.277,6.38412 -15.277,15.02682 z"
     id="path29361"
     inkscape:connector-curvature="0" /><g
     transform="matrix(1.2435452,0,0,1.4652681,-510.0869,-109.1711)"
     style="font-style:normal;font-weight:normal;font-size:236.41893005px;line-height:77.99999714%;font-family:sans-serif;letter-spacing:0px;word-spacing:0px;fill:#000000;fill-opacity:1;stroke:none;stroke-width:1px;stroke-linecap:butt;stroke-linejoin:miter;stroke-opacity:1"
     id="text29963"><path
       d="m 1687.224,1190.3986 0,-137.7869 -43.3228,0 0,-8.9722 q 13.4583,-1.0254 22.6868,-3.717 9.3567,-2.8198 15.6372,-7.1777 6.4087,-4.4861 10.3821,-10.6385 4.1016,-6.2805 7.3059,-14.2273 l 26.7883,0 0,182.5196 -39.4775,0 z"
       style="font-style:normal;font-variant:normal;font-weight:bold;font-stretch:normal;font-size:262.5px;line-height:77.99999714%;font-family:'Lao MN';-inkscape-font-specification:'Lao MN Bold';text-align:center;text-anchor:middle"
       id="path29970"
       inkscape:connector-curvature="0" /><path
       d="m 1856.0289,1194.5001 q -16.0217,0 -29.0954,-7.0495 -13.0738,-7.0496 -22.4304,-19.6106 -9.3567,-12.5611 -14.4837,-29.9927 -5.1269,-17.4317 -5.1269,-38.1958 0,-12.6892 2.3071,-24.4812 2.3071,-11.792 6.665,-22.0459 4.3579,-10.2539 10.6385,-18.7134 6.2805,-8.4595 14.0991,-14.4836 7.9468,-6.1524 17.3034,-9.4849 9.4849,-3.3325 20.1233,-3.3325 16.0218,0 29.0955,7.4341 13.0737,7.3059 22.4304,19.8669 9.3567,12.561 14.3555,29.48 5.1269,16.7908 5.1269,35.7605 0,20.7641 -5.1269,38.1958 -4.9988,17.4316 -14.3555,29.9927 -9.3567,12.561 -22.4304,19.6106 -13.0737,7.0495 -29.0955,7.0495 z m 0,-15.2527 q 6.9214,0 12.0484,-6.5368 5.1269,-6.5369 8.4594,-17.4317 3.3326,-11.0229 4.9988,-25.3784 1.6663,-14.4836 1.6663,-30.249 0,-15.7654 -1.6663,-29.7363 -1.6662,-13.971 -4.9988,-24.4812 -3.3325,-10.6385 -8.4594,-16.7908 -5.127,-6.1524 -12.0484,-6.1524 -6.9214,0 -12.1765,6.1524 -5.1269,6.1523 -8.4595,16.7908 -3.3325,10.5102 -4.9987,24.4812 -1.6663,13.9709 -1.6663,29.7363 0,15.7654 1.6663,30.249 1.6662,14.3555 4.9987,25.3784 3.3326,10.8948 8.4595,17.4317 5.2551,6.5368 12.1765,6.5368 z"
       style="font-style:normal;font-variant:normal;font-weight:bold;font-stretch:normal;font-size:262.5px;line-height:77.99999714%;font-family:'Lao MN';-inkscape-font-specification:'Lao MN Bold';text-align:center;text-anchor:middle"
       id="path29972"
       inkscape:connector-curvature="0" /><path
       d="m 2025.2184,1194.5001 q -16.0217,0 -29.0955,-7.0495 -13.0737,-7.0496 -22.4304,-19.6106 -9.3567,-12.5611 -14.4836,-29.9927 -5.127,-17.4317 -5.127,-38.1958 0,-12.6892 2.3071,-24.4812 2.3072,-11.792 6.6651,-22.0459 4.3579,-10.2539 10.6384,-18.7134 6.2805,-8.4595 14.0991,-14.4836 7.9468,-6.1524 17.3035,-9.4849 9.4849,-3.3325 20.1233,-3.3325 16.0217,0 29.0954,7.4341 13.0738,7.3059 22.4305,19.8669 9.3567,12.561 14.3554,29.48 5.127,16.7908 5.127,35.7605 0,20.7641 -5.127,38.1958 -4.9987,17.4316 -14.3554,29.9927 -9.3567,12.561 -22.4305,19.6106 -13.0737,7.0495 -29.0954,7.0495 z m 0,-15.2527 q 6.9214,0 12.0483,-6.5368 5.127,-6.5369 8.4595,-17.4317 3.3325,-11.0229 4.9988,-25.3784 1.6662,-14.4836 1.6662,-30.249 0,-15.7654 -1.6662,-29.7363 -1.6663,-13.971 -4.9988,-24.4812 -3.3325,-10.6385 -8.4595,-16.7908 -5.1269,-6.1524 -12.0483,-6.1524 -6.9214,0 -12.1765,6.1524 -5.127,6.1523 -8.4595,16.7908 -3.3325,10.5102 -4.9988,24.4812 -1.6662,13.9709 -1.6662,29.7363 0,15.7654 1.6662,30.249 1.6663,14.3555 4.9988,25.3784 3.3325,10.8948 8.4595,17.4317 5.2551,6.5368 12.1765,6.5368 z"
       style="font-style:normal;font-variant:normal;font-weight:bold;font-stretch:normal;font-size:262.5px;line-height:77.99999714%;font-family:'Lao MN';-inkscape-font-specification:'Lao MN Bold';text-align:center;text-anchor:middle"
       id="path29974"
       inkscape:connector-curvature="0" /><path
       d="m 2174.0282,1193.2184 -28.3264,0 142.5293,-186.1084 28.5827,0 -142.7856,186.1084 z m -54.6021,-135.9924 q 0,-10.3821 3.8453,-19.4825 3.8452,-9.1003 10.382,-15.8935 6.6651,-6.9214 15.5091,-10.7666 8.9721,-3.9734 19.0979,-3.9734 10.1257,0 18.9697,3.9734 8.844,3.8452 15.3809,10.7666 6.665,6.7932 10.5102,15.8935 3.8452,9.1004 3.8452,19.4825 0,10.382 -3.8452,19.4824 -3.8452,8.9721 -10.5102,15.7654 -6.5369,6.7932 -15.3809,10.7666 -8.844,3.8452 -18.9697,3.8452 -10.1258,0 -19.0979,-3.8452 -8.844,-3.9734 -15.5091,-10.7666 -6.5368,-6.7933 -10.382,-15.7654 -3.8453,-9.1004 -3.8453,-19.4824 z m 29.2237,0 q 0,7.1777 1.5381,13.5864 1.5381,6.2805 4.1015,11.0229 2.6917,4.7425 6.2805,7.5623 3.5889,2.6916 7.6905,2.6916 4.1015,0 7.6904,-2.6916 3.5889,-2.8198 6.1523,-7.5623 2.6917,-4.7424 4.2298,-11.0229 1.5381,-6.4087 1.5381,-13.5864 0,-7.1778 -1.5381,-13.4583 -1.5381,-6.4087 -4.2298,-11.1511 -2.5634,-4.7425 -6.1523,-7.4341 -3.5889,-2.8198 -7.6904,-2.8198 -4.1016,0 -7.6905,2.8198 -3.5888,2.6916 -6.2805,7.4341 -2.5634,4.7424 -4.1015,11.1511 -1.5381,6.2805 -1.5381,13.4583 z m 98.822,86.0046 q 0,-10.3821 3.8452,-19.4824 3.8452,-9.1004 10.3821,-15.8936 6.665,-6.7932 15.509,-10.6384 8.844,-3.9734 18.9698,-3.9734 10.1257,0 18.9697,3.9734 8.844,3.8452 15.509,10.6384 6.6651,6.7932 10.5103,15.8936 3.8452,9.1003 3.8452,19.4824 0,10.3821 -3.8452,19.4824 -3.8452,9.1004 -10.5103,15.8936 -6.665,6.7932 -15.509,10.7666 -8.844,3.8452 -18.9697,3.8452 -10.1258,0 -18.9698,-3.8452 -8.844,-3.9734 -15.509,-10.7666 -6.5369,-6.7932 -10.3821,-15.8936 -3.8452,-9.1003 -3.8452,-19.4824 z m 29.0955,0 q 0,7.3059 1.538,13.7146 1.5381,6.2805 4.2298,11.0229 2.6916,4.6143 6.1523,7.4341 3.5889,2.6917 7.6905,2.6917 4.1015,0 7.6904,-2.6917 3.5889,-2.8198 6.1523,-7.4341 2.6917,-4.7424 4.2298,-11.0229 1.5381,-6.4087 1.5381,-13.7146 0,-7.1777 -1.5381,-13.4583 -1.5381,-6.4087 -4.2298,-11.1511 -2.5634,-4.7424 -6.1523,-7.4341 -3.5889,-2.8198 -7.6904,-2.8198 -4.1016,0 -7.6905,2.8198 -3.4607,2.6917 -6.1523,7.4341 -2.6917,4.7424 -4.2298,11.1511 -1.538,6.2806 -1.538,13.4583 z"
       style="font-style:normal;font-variant:normal;font-weight:bold;font-stretch:normal;font-size:262.5px;line-height:77.99999714%;font-family:'Lao MN';-inkscape-font-specification:'Lao MN Bold';text-align:center;text-anchor:middle"
       id="path29976"
       inkscape:connector-curvature="0" /><path
       d="m 1627.6898,1257.1133 q 0,-0.86 -1.29,-1.29 -0.86,-0.86 -1.72,0 -9.46,9.89 -20.64,15.91 -10.75,6.02 -21.5,12.47 l -1.72,0.43 q -0.86,-5.59 -3.87,-9.89 -2.58,-4.3 -5.16,-9.03 -6.45,-6.88 -13.33,-13.33 -6.88,-6.45 -14.62,-10.32 -7.74,-4.3 -16.77,-5.59 -8.6,-1.72 -18.49,0.86 -3.44,-2.15 -8.17,-2.15 -24.08,7.31 -44.29,19.78 -2.58,2.58 -6.02,3.44 -3.01,0.86 -6.45,1.72 -9.46,6.88 -18.92,13.33 -9.03,6.02 -17.63,14.62 -13.33,10.32 -21.5,24.08 -8.17,13.33 -14.62,27.09 -2.58,6.02 -3.01,12.9 -0.43,6.45 -1.29,12.9 -4.3,10.75 -4.3,22.36 0.43,11.61 1.72,22.79 3.01,32.25 19.35,59.34 6.88,11.61 16.34,24.08 9.89,12.04 23.65,15.91 6.88,-0.43 12.47,2.15 6.02,3.01 13.33,0.86 10.75,-3.01 20.64,-8.17 9.89,-5.59 18.92,-12.47 9.46,-6.88 18.06,-14.62 9.03,-7.74 18.06,-15.48 3.44,-3.44 6.45,-6.88 3.44,-3.87 5.59,-8.17 15.05,-20.21 24.51,-42.14 9.46,-21.93 15.91,-45.58 2.15,-13.33 3.87,-26.66 2.15,-13.76 0.86,-27.52 0.86,-2.15 1.72,-2.58 6.45,-4.3 13.76,-8.17 7.74,-4.3 14.19,-9.46 6.88,-5.16 11.18,-11.61 4.73,-6.88 4.73,-15.91 z m -63.21,34.83 q -7.31,2.58 -16.34,3.01 -8.6,0.43 -17.2,-0.86 -1.29,-0.43 -2.58,-1.72 -0.86,-1.29 -1.72,-2.58 0.86,-5.59 2.58,-10.75 1.72,-5.16 3.44,-9.89 2.15,-3.01 6.02,-4.73 5.59,-0.86 9.03,2.58 3.44,3.44 6.88,6.45 6.45,7.74 9.89,18.49 z m 1.29,17.2 q 1.72,36.12 -10.32,67.51 -11.61,31.39 -32.25,58.91 l -1.72,4.3 q -12.04,13.76 -26.23,26.66 -13.76,12.9 -28.81,22.79 -6.45,5.59 -15.48,6.02 -9.03,0 -16.34,-4.3 -11.61,-3.44 -20.21,-12.9 -8.6,-9.46 -13.76,-19.35 -4.3,-6.02 -5.16,-13.33 -0.86,-7.31 0,-15.05 -1.72,-4.3 0,-8.17 1.72,-4.3 2.15,-9.03 0.43,-3.44 2.15,-6.02 2.15,-3.01 3.87,-5.59 2.15,-3.01 3.87,-6.02 1.72,-3.01 2.15,-6.45 3.44,-8.17 7.74,-15.91 4.73,-7.74 5.59,-17.2 2.15,-2.15 2.58,-5.59 0.43,-3.44 1.29,-6.02 -1.72,-3.44 0.43,-6.45 2.15,-3.44 3.87,-6.02 7.74,-7.31 12.47,-15.05 4.73,-8.17 12.04,-15.48 6.02,-8.6 14.19,-12.47 8.17,-3.87 15.91,-9.89 1.72,-4.73 6.45,-6.45 4.73,-1.72 9.03,-3.87 l 12.47,-7.31 q -0.86,4.73 -2.58,9.89 -1.72,4.73 -3.01,9.89 -0.86,4.73 -0.43,9.89 0.86,4.73 4.73,9.03 3.44,4.3 7.74,7.74 4.3,3.44 9.89,3.01 9.03,0.43 18.06,0 9.03,-0.43 17.63,-1.72 z"
       style="font-style:normal;font-variant:normal;font-weight:500;font-stretch:normal;font-size:430px;line-height:77.99999714%;font-family:Landliebe;-inkscape-font-specification:'Landliebe Medium';text-align:center;text-anchor:middle"
       id="path29978"
       inkscape:connector-curvature="0" /><path
       d="m 1719.7636,1411.9133 q -3.44,2.15 -7.31,3.87 -3.87,1.29 -8.17,2.15 -1.72,0 -3.87,-0.43 -1.72,-0.86 -2.58,-3.01 -4.73,-9.46 -4.3,-20.64 0.86,-11.18 1.72,-21.07 0.86,-3.44 3.44,-6.45 2.58,-3.44 3.44,-7.31 1.29,-3.01 3.01,-6.02 2.15,-3.01 0.43,-6.45 -2.15,-4.3 -7.31,-6.45 -2.15,-0.86 -3.87,0 -1.72,0.43 -3.44,1.29 -11.61,13.76 -21.5,27.95 -9.89,14.19 -20.21,28.81 l -0.43,0 q 0.86,-9.03 2.58,-17.63 2.15,-8.6 4.3,-17.2 1.29,-3.87 0.43,-6.88 -0.86,-3.44 -3.01,-6.02 -1.72,-2.58 -4.3,-5.16 -2.58,-2.58 -4.3,-5.16 -1.72,-1.72 -4.73,-1.29 -2.58,0 -4.73,0.86 -1.72,-0.86 -6.02,-0.86 -12.47,4.73 -24.08,13.33 -11.18,8.17 -21.93,16.77 -15.05,12.47 -28.38,27.52 -13.33,14.62 -15.48,33.97 l 0.43,0.43 q 2.15,-1.29 3.44,-2.58 1.29,-1.72 3.01,-3.87 12.9,-14.62 27.95,-27.09 15.48,-12.9 31.39,-23.22 l 0.43,0.86 q -3.01,11.18 -7.74,21.5 -4.3,10.32 -7.74,21.5 -3.44,6.88 -6.88,13.33 -3.44,6.45 -6.02,13.76 -8.17,22.36 -21.07,43.86 -0.86,3.01 -3.01,6.02 -2.15,2.58 -4.3,5.16 -1.72,2.58 -2.58,5.59 -0.86,3.01 0.43,6.45 3.87,4.73 8.6,5.16 8.6,-3.01 17.2,-3.44 9.03,0 16.34,-5.16 5.16,-0.86 11.18,-0.43 6.02,0 9.03,-5.59 7.74,-14.62 12.47,-30.1 5.16,-15.91 11.18,-31.39 3.87,-5.16 9.03,-9.89 5.59,-5.16 10.75,-9.89 3.87,-2.58 6.02,-6.02 2.58,-3.87 4.73,-7.74 2.15,-3.87 4.3,-7.31 2.58,-3.44 6.02,-6.02 0.86,6.02 1.29,12.04 0.86,6.02 2.58,11.61 2.15,5.16 5.16,9.89 3.44,4.3 9.46,6.88 3.87,1.72 8.17,0.86 4.3,-0.86 7.74,-2.58 6.02,-3.87 8.6,-9.46 2.58,-5.59 3.01,-11.61 z"
       style="font-style:normal;font-variant:normal;font-weight:500;font-stretch:normal;font-size:430px;line-height:77.99999714%;font-family:Landliebe;-inkscape-font-specification:'Landliebe Medium';text-align:center;text-anchor:middle"
       id="path29980"
       inkscape:connector-curvature="0" /><path
       d="m 1947.415,1410.6233 -0.86,0.43 q -7.74,11.18 -16.34,23.22 -8.6,11.61 -19.78,21.5 -7.74,9.89 -18.06,18.49 -9.89,8.17 -18.92,18.06 -8.6,5.16 -17.2,10.75 -8.17,5.16 -18.49,6.02 3.87,-9.46 8.6,-18.06 4.73,-8.6 12.04,-15.91 2.15,-3.44 3.01,-6.88 0.86,-3.44 2.15,-6.88 5.59,-14.19 12.04,-27.52 6.88,-13.76 12.9,-27.52 0.86,-1.72 0.43,-3.44 0,-2.15 1.29,-3.44 6.45,-3.44 10.75,-8.6 4.3,-5.16 7.31,-11.18 3.44,-6.45 5.59,-12.9 2.58,-6.45 6.02,-12.47 0.86,-2.58 0.43,-5.59 -0.43,-3.01 -3.01,-4.73 -3.01,0.86 -6.45,0.43 -3.01,-0.43 -6.45,-0.86 -3.01,-0.43 -6.02,0 -2.58,0.43 -5.16,3.01 -3.87,2.58 -8.6,2.58 -4.3,-0.43 -9.03,-0.43 -4.3,-0.43 -8.6,0.43 -3.87,0.86 -6.88,5.16 -1.29,3.44 -1.72,7.31 0,3.44 -0.43,7.31 -0.43,3.44 -2.15,6.88 -1.29,3.01 -4.73,4.73 -3.44,-3.01 -3.01,-7.31 0.86,-4.73 1.72,-8.6 -0.86,-3.44 -3.44,-5.59 -2.58,-2.58 -5.16,-5.16 l -11.61,-2.15 q -4.73,-1.29 -9.03,-3.44 -4.3,-2.58 -9.89,-2.58 -4.3,2.15 -8.6,2.58 -4.3,0.43 -9.03,0.86 -4.3,0 -8.6,1.29 -3.87,1.29 -7.31,4.73 -10.75,1.72 -18.49,8.6 -7.74,6.45 -14.62,14.62 -16.77,9.89 -26.23,26.66 -9.03,16.77 -14.62,33.11 -4.73,9.89 -2.15,20.64 3.01,10.75 6.45,19.78 1.72,3.01 4.73,4.3 3.01,1.29 6.02,2.58 3.01,0.86 6.02,2.15 3.01,1.29 5.16,4.3 0,3.87 1.72,6.88 2.15,2.58 5.59,5.16 5.59,3.87 11.18,3.87 5.59,-0.43 10.75,-2.58 5.16,-2.15 10.32,-5.16 5.16,-3.44 10.32,-5.59 3.87,-0.86 6.88,-3.44 3.01,-3.01 6.45,-3.87 -1.29,8.6 -4.73,16.34 -3.01,7.74 -6.45,15.48 -2.15,3.44 -6.02,5.16 -3.87,1.72 -7.31,3.87 -10.32,3.01 -20.21,7.74 -9.46,5.16 -19.78,9.89 -6.88,2.58 -14.19,5.59 -7.31,3.01 -14.19,6.88 -6.45,4.3 -12.04,9.46 -5.59,5.59 -8.6,13.33 -0.86,1.72 -1.72,3.44 -0.86,2.15 0,4.3 -0.86,6.02 0.86,12.47 1.29,6.45 6.02,11.18 4.73,2.15 9.46,3.87 4.3,2.15 9.03,3.44 7.31,0 13.76,-3.87 6.45,-3.44 14.19,-3.44 7.31,-0.86 13.33,-4.73 6.45,-3.87 12.47,-7.31 3.87,-2.15 7.31,-3.44 3.87,-1.29 6.88,-3.44 8.6,-10.32 16.77,-21.07 8.17,-10.32 17.63,-19.35 2.15,-7.31 7.31,-12.47 5.16,-5.16 11.61,-9.46 5.16,-3.01 11.18,-4.73 6.02,-1.72 12.04,-3.44 6.02,-1.29 11.61,-3.87 5.59,-2.58 10.32,-7.31 10.75,-4.3 19.78,-12.04 9.03,-7.74 15.91,-17.2 7.31,-6.45 14.62,-12.9 7.31,-6.88 12.47,-14.62 5.16,-10.32 10.75,-21.07 5.59,-10.75 4.73,-23.22 z m -105.78,-18.49 q 0.86,6.45 -2.15,12.04 -3.01,5.16 -6.02,11.18 -0.86,2.58 0.43,4.73 1.72,2.15 -0.43,4.3 -3.01,7.74 -8.17,14.62 -5.16,6.45 -11.61,12.04 -6.45,5.59 -13.33,10.75 -6.45,5.16 -12.9,9.89 -15.05,10.75 -32.68,17.2 -4.73,1.72 -6.88,-3.44 -3.01,-6.45 -1.72,-14.19 1.29,-8.17 3.44,-15.05 3.01,-2.58 4.73,-6.02 2.15,-3.44 3.44,-6.88 1.29,-3.87 2.58,-7.31 1.72,-3.44 4.73,-6.45 6.88,-11.18 14.19,-21.5 7.74,-10.32 9.89,-24.08 7.31,-6.02 12.47,-13.76 3.01,-2.15 6.02,-2.58 3.44,-0.43 6.88,-1.72 4.73,-0.86 8.17,1.29 3.87,1.72 7.74,2.15 2.58,0.86 2.15,3.44 -0.43,2.58 -0.43,4.3 1.29,9.03 9.46,15.05 z m -76.54,154.8 q -3.87,7.74 -9.03,15.05 -5.16,7.31 -9.89,15.05 -2.15,3.87 -4.3,7.74 -2.15,4.3 -6.45,6.45 -8.6,2.15 -15.91,5.59 -6.88,3.87 -15.48,5.59 -5.16,0 -7.31,-4.73 -2.58,-2.58 -2.15,-6.45 0,-3.44 1.72,-6.45 4.3,-8.17 12.04,-12.04 8.17,-3.44 14.62,-8.17 9.03,-3.01 16.77,-7.31 8.17,-4.3 16.77,-9.03 2.15,-0.86 4.3,-0.86 2.15,0 4.3,-0.43 z"
       style="font-style:normal;font-variant:normal;font-weight:500;font-stretch:normal;font-size:430px;line-height:77.99999714%;font-family:Landliebe;-inkscape-font-specification:'Landliebe Medium';text-align:center;text-anchor:middle"
       id="path29982"
       inkscape:connector-curvature="0" /><path
       d="m 2139.4436,1411.9133 q -4.73,1.72 -6.88,6.88 -2.15,4.73 -5.59,8.17 -9.03,15.48 -21.5,30.1 -12.04,14.62 -27.09,25.8 -2.58,0.86 -5.16,2.58 -2.58,1.72 -5.16,3.01 -2.58,0.86 -5.59,0.86 -2.58,0 -5.16,-2.15 -2.15,-0.86 -3.01,-2.58 -0.43,-2.15 -0.43,-3.87 -1.29,-5.59 0.86,-9.46 2.58,-3.87 6.45,-6.88 3.87,-3.44 7.74,-6.45 4.3,-3.01 6.45,-7.31 4.3,-9.46 7.31,-19.35 3.44,-10.32 6.45,-20.21 3.01,-10.32 6.88,-19.78 4.3,-9.89 10.75,-18.92 2.58,-3.87 6.02,-6.45 3.44,-2.58 6.88,-6.88 1.29,-3.87 4.3,-7.31 3.01,-3.87 0.86,-8.6 l -3.01,-3.01 q -5.59,-0.86 -11.18,0 -5.59,0.86 -10.75,2.15 -4.3,1.72 -8.6,0.86 -3.87,-0.86 -7.74,-1.29 -3.87,-0.86 -7.74,0 -3.87,0.43 -6.88,4.3 l -12.04,29.24 q -3.01,-8.6 -8.17,-16.77 -4.73,-8.6 -14.19,-11.61 -12.47,-4.3 -25.37,0.43 -12.47,4.3 -22.36,12.9 -2.58,0.43 -5.16,1.29 -2.58,0.43 -4.73,2.15 -13.76,9.89 -24.51,23.65 -10.32,13.76 -16.77,28.81 -6.02,17.2 -2.58,36.12 3.87,18.49 16.34,31.39 3.01,8.17 8.6,15.48 5.59,6.88 14.19,10.75 4.73,0.86 10.75,0.86 6.45,0 11.18,-4.73 12.04,-9.89 21.5,-21.5 9.89,-11.61 17.2,-24.94 -1.29,12.9 2.58,24.94 3.87,11.61 11.61,21.5 3.44,3.01 8.6,3.87 5.16,1.29 9.89,-1.29 16.34,-7.31 30.53,-19.35 14.19,-12.47 24.08,-28.38 5.16,-7.31 9.89,-14.62 5.16,-7.74 7.31,-16.34 0.86,-4.73 1.72,-9.03 1.29,-4.3 0.43,-9.03 z m -91.59,-17.2 q -3.44,11.18 -8.17,21.93 -4.73,10.32 -9.03,21.5 -7.31,11.61 -15.48,23.65 -7.74,11.61 -19.35,21.07 -3.01,2.15 -6.02,3.87 -3.01,1.29 -6.45,0.43 -3.44,0 -4.73,-2.58 -0.86,-3.01 -1.72,-5.16 -3.44,-18.06 0.86,-33.97 4.73,-16.34 11.61,-31.39 5.59,-3.44 6.45,-9.46 1.29,-6.02 4.3,-11.61 3.01,-9.03 9.03,-18.06 6.45,-9.46 16.34,-11.18 6.02,-0.86 9.46,3.44 3.87,3.87 6.45,8.17 2.15,4.73 3.87,9.89 1.72,4.73 2.58,9.46 z"
       style="font-style:normal;font-variant:normal;font-weight:500;font-stretch:normal;font-size:430px;line-height:77.99999714%;font-family:Landliebe;-inkscape-font-specification:'Landliebe Medium';text-align:center;text-anchor:middle"
       id="path29984"
       inkscape:connector-curvature="0" /><path
       d="m 2361.7368,1412.7733 -1.29,-0.86 q -11.18,17.63 -24.51,33.11 -12.9,15.48 -29.24,30.53 -6.45,5.16 -12.9,11.61 -6.02,6.45 -14.19,7.31 -0.86,-0.86 -1.72,-1.29 -0.43,-0.86 -0.86,-1.72 -1.29,-2.15 -1.29,-5.16 0,-3.44 0.86,-6.02 9.46,-18.92 21.07,-36.55 12.04,-17.63 24.08,-34.83 3.44,-6.02 6.45,-12.47 3.01,-6.45 2.15,-14.19 -0.86,-8.17 -4.73,-15.91 -3.44,-8.17 -12.04,-10.32 -0.43,-2.15 -1.29,-4.73 -0.86,-3.01 -3.01,-4.3 -10.32,-1.72 -19.78,0 -9.03,1.29 -18.06,5.16 -8.6,3.44 -16.77,8.6 -8.17,4.73 -15.91,9.89 -2.15,-4.73 -1.29,-9.46 1.29,-5.16 0.43,-9.89 -1.72,-2.58 -4.3,-3.44 -2.58,-0.86 -5.59,-1.29 -2.58,-0.43 -5.59,0 -2.58,0 -5.16,-0.43 -2.58,0.43 -4.3,2.58 -1.72,1.72 -4.3,1.72 -18.06,12.04 -35.69,27.09 -17.63,14.62 -30.96,33.11 -1.72,3.01 -3.44,8.17 -1.29,4.73 -2.15,8.17 -0.86,3.44 -0.86,3.87 8.17,-7.31 15.48,-14.19 7.74,-7.31 17.2,-14.62 3.01,-2.15 6.45,-5.16 3.44,-3.01 7.31,-4.3 -3.44,7.31 -7.31,14.62 -3.44,6.88 -7.31,14.19 -1.29,1.29 -0.86,2.15 0.43,0.86 -1.29,1.72 -6.88,13.33 -13.33,26.66 -6.45,13.33 -15.48,25.8 -3.87,8.17 -9.03,15.05 -5.16,6.88 -6.45,15.48 0,3.44 2.58,4.73 5.59,3.44 9.89,0 4.3,-3.01 9.03,-4.73 4.3,-2.58 9.03,-3.01 4.73,-0.86 9.46,-0.86 5.16,0 10.32,0.43 5.16,0 10.32,-0.86 3.44,-3.01 3.01,-6.88 0,-4.3 0.86,-8.6 1.72,-8.6 5.16,-15.48 3.87,-7.31 6.45,-15.05 4.73,-8.17 9.03,-16.77 4.3,-8.6 8.6,-16.77 4.73,-8.6 10.32,-16.34 5.59,-7.74 13.33,-15.05 3.87,-3.44 8.6,-5.59 5.16,-2.15 6.45,-7.74 l 12.9,-8.17 q 7.31,-3.01 15.48,-6.02 8.17,-3.01 15.48,0 -4.73,4.73 -9.03,9.46 -3.87,4.73 -8.17,9.46 -7.74,11.18 -15.91,21.93 -8.17,10.32 -13.76,22.79 -4.3,13.76 -5.16,29.24 -0.43,15.05 3.44,29.67 1.29,4.3 4.73,7.31 3.44,2.58 6.88,4.73 2.58,3.44 4.3,7.74 2.15,4.3 7.74,4.73 10.32,0 18.92,-4.3 8.6,-4.73 15.91,-11.61 7.31,-6.88 14.19,-15.05 6.88,-8.17 13.76,-14.62 24.08,-22.79 26.66,-54.18 z"
       style="font-style:normal;font-variant:normal;font-weight:500;font-stretch:normal;font-size:430px;line-height:77.99999714%;font-family:Landliebe;-inkscape-font-specification:'Landliebe Medium';text-align:center;text-anchor:middle"
       id="path29986"
       inkscape:connector-curvature="0" /><path
       d="m 2450.1858,1290.2233 q 0.86,-6.02 -1.72,-10.75 -2.58,-4.73 -4.3,-9.46 -2.15,-3.01 -5.59,-3.44 -3.44,-0.43 -6.88,-1.29 -3.01,0.86 -5.59,3.44 -2.15,2.15 -4.73,4.3 -1.72,5.16 -6.45,7.74 -4.73,2.58 -8.17,6.45 -3.44,4.73 -2.58,10.32 0.86,5.16 0.43,10.75 1.72,3.87 5.16,6.45 3.44,2.15 6.88,3.01 3.44,0.86 6.02,0 3.01,-1.29 5.16,-3.44 2.58,-2.58 4.73,-5.16 2.15,-2.58 4.73,-4.3 4.3,-2.58 8.17,-5.59 3.87,-3.44 4.73,-9.03 z m 18.06,124.7 q -0.43,-0.86 -0.86,-0.43 0,0.43 -0.43,0.43 -12.9,18.92 -27.09,36.98 -13.76,18.06 -30.53,34.4 -3.01,3.01 -6.45,6.02 -3.01,2.58 -7.31,3.44 -3.87,0 -6.45,-3.01 -2.58,-3.01 -4.3,-5.59 -2.58,-3.87 -3.01,-7.74 0,-4.3 0.86,-8.6 0.86,-4.3 2.58,-8.17 1.72,-4.3 2.58,-8.17 7.31,-7.74 11.18,-16.77 4.3,-9.46 6.88,-19.35 3.01,-9.89 5.16,-19.78 2.58,-9.89 6.45,-19.35 1.29,-3.87 4.3,-6.45 3.01,-2.58 6.02,-5.16 3.01,-2.58 5.16,-5.16 2.15,-3.01 2.15,-7.74 -1.72,-2.58 -2.58,-6.02 -0.43,-3.44 -4.3,-3.44 -5.16,1.72 -10.32,3.87 -4.73,1.72 -9.89,3.01 -5.16,0.86 -9.89,0 -4.73,-1.29 -9.89,-0.86 -11.18,8.6 -15.91,20.21 -4.3,11.18 -9.89,22.36 -1.29,10.75 -4.3,21.07 -3.01,9.89 -6.02,20.21 -5.59,7.74 -4.73,16.77 0.86,8.6 2.15,17.63 0.86,4.3 2.58,9.03 1.72,4.3 6.88,5.16 3.01,4.73 6.02,10.32 3.01,5.16 6.45,9.89 3.87,4.73 8.6,7.74 4.73,3.44 11.18,3.44 4.73,-1.29 8.6,-2.58 4.3,-0.86 7.74,-3.87 13.76,-14.62 27.09,-27.95 13.33,-13.76 23.65,-30.53 3.44,-8.6 6.02,-16.77 3.01,-8.6 3.87,-18.49 z"
       style="font-style:normal;font-variant:normal;font-weight:500;font-stretch:normal;font-size:430px;line-height:77.99999714%;font-family:Landliebe;-inkscape-font-specification:'Landliebe Medium';text-align:center;text-anchor:middle"
       id="path29988"
       inkscape:connector-curvature="0" /><path
       d="m 2626.8956,1408.9033 q -8.6,8.17 -15.91,17.63 -7.31,9.46 -17.2,17.63 -29.67,30.96 -68.8,43.86 -5.16,0.43 -11.18,2.58 -5.59,2.15 -10.75,-1.72 -3.01,-3.44 -2.15,-8.6 3.44,-11.61 6.02,-23.22 3.01,-11.61 3.87,-24.08 6.45,-12.47 11.18,-25.8 5.16,-13.33 12.9,-25.8 6.45,-5.59 11.18,-12.04 4.73,-6.88 11.61,-12.04 6.02,0 11.18,-1.29 5.16,-1.72 11.18,-1.72 3.87,4.73 4.3,11.61 0.43,6.45 0,12.47 0,4.3 3.44,4.3 6.45,0.86 10.32,-2.58 5.16,-8.6 3.44,-18.92 -1.72,-10.75 -5.16,-19.35 -1.72,-2.58 -4.3,-3.44 -2.15,-0.86 -5.16,-0.43 -3.01,0 -6.02,0.86 -2.58,0.86 -5.16,1.29 -18.49,-3.87 -37.84,0 -18.92,3.87 -33.11,15.91 -11.18,4.3 -18.49,14.19 -7.31,9.46 -14.19,18.49 -3.01,5.16 -6.88,11.18 -3.44,5.59 -6.02,11.61 -2.58,5.59 -3.44,12.04 -0.86,6.45 1.72,12.9 0.43,12.04 4.3,22.36 3.87,10.32 9.89,20.21 6.45,5.16 11.18,12.47 4.73,6.88 9.89,13.76 6.02,4.3 12.9,2.58 7.31,-1.72 13.76,-2.58 26.23,-8.17 50.31,-23.22 24.51,-15.05 42.57,-39.56 4.73,-8.17 9.03,-15.91 4.73,-8.17 5.59,-17.63 z"
       style="font-style:normal;font-variant:normal;font-weight:500;font-stretch:normal;font-size:430px;line-height:77.99999714%;font-family:Landliebe;-inkscape-font-specification:'Landliebe Medium';text-align:center;text-anchor:middle"
       id="path29990"
       inkscape:connector-curvature="0" /></g></svg>